<?xml version="1.0" encoding="UTF-8"?>
<svg id="Layer_1" xmlns="http://www.w3.org/2000/svg" version="1.1" viewBox="0 0 141 48">
  <!-- Generator: Adobe Illustrator 29.3.1, SVG Export Plug-In . SVG Version: 2.1.0 Build 151)  -->
  <defs>
    <style>
      .st0 {
        fill: #fff;
      }

      .st1 {
        fill: #f6301b;
      }
    </style>
  </defs>
  <rect width="141" height="48"/>
  <path class="st1" d="M38.5,32l12.8,6.4-12.8,6.4v-12.8Z"/>
  <path class="st1" d="M25.6,0L0,12.8v25.6l12.8,6.4v-25.6l25.6-12.8L25.6,0Z"/>
  <path class="st1" d="M51.3,19.2l-19.2,9.6v19.2l-12.8-6.4v-19.2l19.2-9.6s12.8,6.4,12.8,6.4Z"/>
  <path class="st0" d="M141,19.2v3.8h-11.4c-2.1,0-3.8,1.7-3.8,3.8v7.6h-3.8v-7.6c0-4.2,3.4-7.6,7.6-7.6,0,0,11.4,0,11.4,0Z"/>
  <path class="st0" d="M141,26.8v11.4h-15.2v-3.8h11.4v-3.8h-3.8v-3.8h7.6Z"/>
  <path class="st0" d="M76.6,19.2v3.8h-11.4c-2.1,0-3.8,1.7-3.8,3.8v7.6h-3.8v-7.6c0-4.2,3.4-7.6,7.6-7.6,0,0,11.4,0,11.4,0Z"/>
  <path class="st0" d="M76.6,34.3h-15.2v3.8h15.2v-3.8Z"/>
  <path class="st0" d="M88,19.2h-3.8v19.2h3.8v-19.2Z"/>
  <path class="st0" d="M88,23v-3.8h-7.6v3.8h7.6Z"/>
  <path class="st0" d="M95.6,23v-3.8h-7.6v3.8h7.6Z"/>
  <path class="st0" d="M116.8,28.6c.9,1,1.5,2.3,1.5,3.8,0,2.5-1.6,4.6-3.8,5.3-.6.2-1.2.4-1.9.4h-9.5v-3.8h9.5c1.1,0,1.9-.8,1.9-1.9s-.8-1.9-1.9-1.9h-5.7v-3.8h5.7c1.1,0,1.9-.8,1.9-1.9s-.8-1.9-1.9-1.9h-9.5v-3.8h9.5c.7,0,1.3.1,1.9.4,2.2.8,3.8,2.9,3.8,5.3s-.6,2.8-1.5,3.8h0Z"/>
  <path class="st0" d="M103.1,23h-3.8v15.1h3.8s0-15.1,0-15.1Z"/>
</svg>